<?xml version="1.0" encoding="utf-8"?>
<!-- Generator: Adobe Illustrator 22.1.0, SVG Export Plug-In . SVG Version: 6.00 Build 0)  -->
<svg version="1.1" id="Capa_1" xmlns="http://www.w3.org/2000/svg" xmlns:xlink="http://www.w3.org/1999/xlink" x="0px" y="0px"
	 viewBox="0 0 1366 699" style="enable-background:new 0 0 1366 699;" xml:space="preserve">
<style type="text/css">
	.st0{display:none;fill:#FFFFFF;}
	.st1{display:none;fill:#F40000;}
	.st2{fill:#FFFFFF;stroke:#FFFFFF;stroke-miterlimit:10;}
</style>
<title>montana</title>
<path class="st0" d="M767,575"/>
<path class="st1" d="M543.3,689c8.9-1.1,23.8-3.7,40.8-10.4c59.2-23.6,66.4-67.2,98.2-67c27.8,0.2,31.8,33.7,85.2,60.3
	c21.4,10.6,41.1,15.4,54.8,17.7c-43.3,1.8-88.2,2.7-134.7,2.7C637.7,692.3,589.6,691.1,543.3,689z"/>
<path class="st2" d="M1370.5,692.3l-548.2-2.7l-30.8-7.7c0,0-38.2-13.7-64.4-38c-24.2-24.1-29.9-30.4-40-32.3
	c-17.8-2.5-29.8,9-48.1,29.1c-19.6,21.6-57.9,47.3-99.9,48.1c-171,3.3-461.5-6.4-544.3,3.5c0-26.9,5.2-59.7,5.2-86.6l677.8,5.9
	l687.5-5.9L1370.5,692.3z"/>
</svg>
